ply
format ascii 1.0
comment author: Proteus
comment object: PLCDomain
element vertex 16
property float x
property float y
property float z
element face 12 
property list uchar int vertex_index
end_header
0.0000000000000000e+00 0.0000000000000000e+00 0.0000000000000000e+00
3.2200000000000002e+00 0.0000000000000000e+00 0.0000000000000000e+00
3.2200000000000002e+00 1.0000000000000000e+00 0.0000000000000000e+00
0.0000000000000000e+00 1.0000000000000000e+00 0.0000000000000000e+00
0.0000000000000000e+00 0.0000000000000000e+00 1.0000000000000000e+00
3.2200000000000002e+00 0.0000000000000000e+00 1.0000000000000000e+00
3.2200000000000002e+00 1.0000000000000000e+00 1.0000000000000000e+00
0.0000000000000000e+00 1.0000000000000000e+00 1.0000000000000000e+00
2.3955000000000002e+00 2.9849999999999999e-01 0.0000000000000000e+00
2.5565000000000002e+00 2.9849999999999999e-01 0.0000000000000000e+00
2.5565000000000002e+00 7.0150000000000001e-01 0.0000000000000000e+00
2.3955000000000002e+00 7.0150000000000001e-01 0.0000000000000000e+00
2.3955000000000002e+00 2.9849999999999999e-01 1.6100000000000000e-01
2.5565000000000002e+00 2.9849999999999999e-01 1.6100000000000000e-01
2.5565000000000002e+00 7.0150000000000001e-01 1.6100000000000000e-01
2.3955000000000002e+00 7.0150000000000001e-01 1.6100000000000000e-01
4 0 1 2 3
4 8 9 10 11
4 0 1 5 4
4 1 2 6 5
4 2 3 7 6
4 3 0 4 7
4 4 5 6 7
4 8 9 13 12
4 9 10 14 13
4 10 11 15 14
4 11 8 12 15
4 12 13 14 15
