700 73 1 0          
16 Autodesk AutoCAD 19 ASM 216.0.0.4501 NT 24 Wed Feb 13 11:20:24 2013 
1 9.9999999999999995e-007 1e-010 
body $1 -1 $-1 $2 $-1 $-1 #
ref_vt-eye-attrib $-1 -1 $-1 $-1 $0 $3 $4 #
lump $5 -1 $-1 $-1 $6 $0 #
eye_refinement $-1 -1 @5 grid  1 @3 tri 1 @4 surf 0 @3 adj 0 @4 grad 0 @9 postcheck 0 @4 stol 0.0090738721191883087 @4 ntol 30 @4 dsil 0 @8 flatness 0 @7 pixarea 0 @4 hmax 0 @6 gridar 0 @5 mgrid 3000 @5 ugrid 0 @5 vgrid 0 @10 end_fields #
vertex_template $-1 -1 3 0 1 8 #
ref_vt-eye-attrib $-1 -1 $-1 $-1 $2 $3 $4 #
shell $7 -1 $-1 $-1 $-1 $8 $-1 $2 #
ref_vt-eye-attrib $-1 -1 $-1 $-1 $6 $3 $4 #
face $9 -1 $-1 $10 $11 $6 $-1 $12 forward single #
color-adesk-attrib $-1 -1 $13 $-1 $8 256 #
face $14 -1 $-1 $15 $16 $6 $-1 $17 reversed single #
loop $-1 -1 $-1 $18 $19 $8 #
cone-surface $-1 -1 $-1 -3.499000072479248 0.49599999189376831 0.0009999983012676239 1 0 -1.8368534853844844e-016 0 0.038100000470876694 0 1 I I 0 1 0.038100000470876694 forward I I I I #
fmesh-eye-attrib $-1 -1 $20 $9 $8 #
color-adesk-attrib $-1 -1 $21 $-1 $10 256 #
face $22 -1 $-1 $23 $24 $6 $-1 $25 forward single #
loop $-1 -1 $-1 $-1 $26 $10 #
plane-surface $-1 -1 $-1 -3.499000072479248 0.49599999189376831 0.0009999983012676239 1 0 -1.8369701987210297e-016 -1.8369701987210297e-016 0 -1 forward_v I I I I #
loop $-1 -1 $-1 $-1 $27 $8 #
coedge $-1 -1 $-1 $19 $19 $28 $29 reversed $11 $-1 #
ref_vt-eye-attrib $-1 -1 $-1 $13 $8 $3 $4 #
fmesh-eye-attrib $-1 -1 $30 $14 $10 #
color-adesk-attrib $-1 -1 $31 $-1 $15 256 #
face $32 -1 $-1 $33 $34 $6 $-1 $35 reversed single #
loop $-1 -1 $-1 $36 $37 $15 #
cone-surface $-1 -1 $-1 -3.499000072479248 -0.49400001764297485 0.0009999983012676239 1 0 -1.8368534853844844e-016 0 0.038100000470876694 0 1 I I 0 1 0.038100000470876694 forward I I I I #
coedge $-1 -1 $-1 $26 $26 $27 $38 reversed $16 $-1 #
coedge $-1 -1 $-1 $27 $27 $26 $38 forward $18 $-1 #
coedge $-1 -1 $-1 $28 $28 $19 $29 forward $39 $-1 #
edge $40 -1 $-1 $41 0 $41 6.2831853071795862 $28 $42 forward @7 tangent #
ref_vt-eye-attrib $-1 -1 $-1 $21 $10 $3 $4 #
fmesh-eye-attrib $-1 -1 $43 $22 $15 #
color-adesk-attrib $-1 -1 $44 $-1 $23 256 #
face $45 -1 $-1 $-1 $46 $6 $-1 $47 forward single #
loop $-1 -1 $-1 $-1 $48 $23 #
plane-surface $-1 -1 $-1 -3.499000072479248 -0.49400001764297485 0.0009999983012676239 1 0 -1.8369701987210297e-016 -1.8369701987210297e-016 0 -1 forward_v I I I I #
loop $-1 -1 $-1 $-1 $49 $15 #
coedge $-1 -1 $-1 $37 $37 $50 $51 reversed $24 $-1 #
edge $52 -1 $-1 $53 0 $53 6.2831853071795862 $27 $54 forward @7 unknown #
loop $-1 -1 $-1 $-1 $28 $33 #
color-adesk-attrib $-1 -1 $55 $-1 $29 256 #
vertex $-1 -1 $-1 $29 $56 #
ellipse-curve $-1 -1 $-1 -4.3368086899420177e-019 0.49599999189376826 0.0009999983012676239 0.99999795117276979 -0.0020242653637309806 0 7.7124511311329745e-005 0.038099922410558255 0 1 I I #
ref_vt-eye-attrib $-1 -1 $-1 $31 $15 $3 $4 #
fmesh-eye-attrib $-1 -1 $57 $32 $23 #
color-adesk-attrib $-1 -1 $58 $-1 $33 256 #
loop $-1 -1 $-1 $39 $50 $33 #
torus-surface $-1 -1 $-1 -0.0010020134176511825 0.000999987125396673 0.0009999983012676239 -0 -0 -1 0.4950010189399382 0.038100000470876694 -1 0 0 forward_v I I I I #
coedge $-1 -1 $-1 $48 $48 $49 $59 reversed $34 $-1 #
coedge $-1 -1 $-1 $49 $49 $48 $59 forward $36 $-1 #
coedge $-1 -1 $-1 $50 $50 $37 $51 forward $46 $-1 #
edge $60 -1 $-1 $61 3.1415926535897762 $61 9.4247779607693616 $50 $62 forward @7 tangent #
color-adesk-attrib $-1 -1 $63 $-1 $38 256 #
vertex $-1 -1 $-1 $38 $64 #
ellipse-curve $-1 -1 $-1 -3.499000072479248 0.49599999189376831 0.0009999983012676239 1 0 -1.8369701987210297e-016 0 0.038100000470876694 0 1 I I #
ptlist-eye-attrib $-1 -1 $-1 $40 $29 #
point $-1 -1 $-1 7.7124511311329311e-005 0.53409991430432646 0.0009999983012676239 #
ref_vt-eye-attrib $-1 -1 $-1 $44 $23 $3 $4 #
fmesh-eye-attrib $-1 -1 $65 $45 $33 #
edge $66 -1 $-1 $67 0 $67 6.2831853071795862 $49 $68 forward @7 unknown #
color-adesk-attrib $-1 -1 $69 $-1 $51 256 #
tvertex-vertex $-1 -1 $-1 $51 $70 7.7124560814985978e-005 #
ellipse-curve $-1 -1 $-1 4.3368086899420177e-019 -0.49400001764297491 0.0009999983012676239 0.99999795117276991 0.0020242653637290529 -0 7.712451131125629e-005 -0.038099922410558262 0 1 I I #
ptlist-eye-attrib $-1 -1 $-1 $52 $38 #
point $-1 -1 $-1 -3.499000072479248 0.534099992364645 0.0009999983012676239 #
ref_vt-eye-attrib $-1 -1 $-1 $58 $33 $3 $4 #
color-adesk-attrib $-1 -1 $71 $-1 $59 256 #
vertex $-1 -1 $-1 $59 $72 #
ellipse-curve $-1 -1 $-1 -3.499000072479248 -0.49400001764297485 0.0009999983012676239 1 0 -1.8369701987210297e-016 0 0.038100000470876694 0 1 I I #
ptlist-eye-attrib $-1 -1 $-1 $60 $51 #
point $-1 -1 $-1 0 -0.45590001717209816 0.00099999830126698119 #
ptlist-eye-attrib $-1 -1 $-1 $66 $59 #
point $-1 -1 $-1 -3.499000072479248 -0.45590001717209816 0.0009999983012676239 #
